<mxfile host="app.diagrams.net" agent="Mozilla/5.0 (Windows NT 10.0; Win64; x64) AppleWebKit/537.36 (KHTML, like Gecko) Chrome/140.0.0.0 Safari/537.36" version="28.2.5">
  <diagram name="Page-1" id="wAtC6R_a0vJa6pUKKfW0">
    <mxGraphModel dx="1042" dy="551" grid="1" gridSize="10" guides="1" tooltips="1" connect="1" arrows="1" fold="1" page="1" pageScale="1" pageWidth="850" pageHeight="1100" math="0" shadow="0">
      <root>
        <mxCell id="0" />
        <mxCell id="1" parent="0" />
        <mxCell id="aYYyIPE10w_DYUyuWhEu-3" value="" style="edgeStyle=orthogonalEdgeStyle;rounded=0;orthogonalLoop=1;jettySize=auto;html=1;fontSize=14;" edge="1" parent="1" source="aYYyIPE10w_DYUyuWhEu-1" target="aYYyIPE10w_DYUyuWhEu-2">
          <mxGeometry relative="1" as="geometry" />
        </mxCell>
        <mxCell id="aYYyIPE10w_DYUyuWhEu-1" value="START" style="strokeWidth=2;html=1;shape=mxgraph.flowchart.terminator;whiteSpace=wrap;fontSize=14;" vertex="1" parent="1">
          <mxGeometry x="182.5" y="50" width="105" height="50" as="geometry" />
        </mxCell>
        <mxCell id="aYYyIPE10w_DYUyuWhEu-19" value="" style="edgeStyle=orthogonalEdgeStyle;rounded=0;orthogonalLoop=1;jettySize=auto;html=1;" edge="1" parent="1" source="aYYyIPE10w_DYUyuWhEu-2" target="aYYyIPE10w_DYUyuWhEu-18">
          <mxGeometry relative="1" as="geometry" />
        </mxCell>
        <mxCell id="aYYyIPE10w_DYUyuWhEu-2" value="define f(x)&lt;div&gt;define [a, b]&lt;/div&gt;&lt;div&gt;define divider&lt;/div&gt;" style="verticalLabelPosition=middle;verticalAlign=middle;html=1;shape=hexagon;perimeter=hexagonPerimeter2;arcSize=6;size=0.27;labelPosition=center;align=center;fontSize=14;" vertex="1" parent="1">
          <mxGeometry x="150" y="150" width="170" height="80" as="geometry" />
        </mxCell>
        <mxCell id="aYYyIPE10w_DYUyuWhEu-7" value="" style="edgeStyle=orthogonalEdgeStyle;rounded=0;orthogonalLoop=1;jettySize=auto;html=1;fontSize=14;" edge="1" parent="1" source="aYYyIPE10w_DYUyuWhEu-4" target="aYYyIPE10w_DYUyuWhEu-6">
          <mxGeometry relative="1" as="geometry" />
        </mxCell>
        <mxCell id="aYYyIPE10w_DYUyuWhEu-13" value="&lt;font style=&quot;font-size: 14px;&quot;&gt;T&lt;/font&gt;" style="edgeLabel;html=1;align=center;verticalAlign=middle;resizable=0;points=[];" vertex="1" connectable="0" parent="aYYyIPE10w_DYUyuWhEu-7">
          <mxGeometry x="-0.08" y="-1" relative="1" as="geometry">
            <mxPoint as="offset" />
          </mxGeometry>
        </mxCell>
        <mxCell id="aYYyIPE10w_DYUyuWhEu-4" value="i initially&amp;nbsp;&lt;div&gt;from a&lt;div&gt;i &amp;lt;= b?&lt;/div&gt;&lt;/div&gt;" style="strokeWidth=2;html=1;shape=mxgraph.flowchart.decision;whiteSpace=wrap;fontSize=14;" vertex="1" parent="1">
          <mxGeometry x="181.25" y="430" width="107.5" height="110" as="geometry" />
        </mxCell>
        <mxCell id="aYYyIPE10w_DYUyuWhEu-9" value="" style="edgeStyle=orthogonalEdgeStyle;rounded=0;orthogonalLoop=1;jettySize=auto;html=1;" edge="1" parent="1" source="aYYyIPE10w_DYUyuWhEu-6" target="aYYyIPE10w_DYUyuWhEu-8">
          <mxGeometry relative="1" as="geometry" />
        </mxCell>
        <mxCell id="aYYyIPE10w_DYUyuWhEu-14" value="&lt;font style=&quot;font-size: 14px;&quot;&gt;T&lt;/font&gt;" style="edgeLabel;html=1;align=center;verticalAlign=middle;resizable=0;points=[];" vertex="1" connectable="0" parent="aYYyIPE10w_DYUyuWhEu-9">
          <mxGeometry x="-0.1481" relative="1" as="geometry">
            <mxPoint as="offset" />
          </mxGeometry>
        </mxCell>
        <mxCell id="aYYyIPE10w_DYUyuWhEu-11" value="" style="edgeStyle=orthogonalEdgeStyle;rounded=0;orthogonalLoop=1;jettySize=auto;html=1;" edge="1" parent="1" source="aYYyIPE10w_DYUyuWhEu-6" target="aYYyIPE10w_DYUyuWhEu-10">
          <mxGeometry relative="1" as="geometry" />
        </mxCell>
        <mxCell id="aYYyIPE10w_DYUyuWhEu-15" value="&lt;font style=&quot;font-size: 14px;&quot;&gt;F&lt;/font&gt;" style="edgeLabel;html=1;align=center;verticalAlign=middle;resizable=0;points=[];" vertex="1" connectable="0" parent="aYYyIPE10w_DYUyuWhEu-11">
          <mxGeometry x="-0.1854" y="-1" relative="1" as="geometry">
            <mxPoint as="offset" />
          </mxGeometry>
        </mxCell>
        <mxCell id="aYYyIPE10w_DYUyuWhEu-6" value="f(i) * f(i + 1)&amp;nbsp;&lt;div&gt;&amp;lt; 0?&lt;/div&gt;" style="strokeWidth=2;html=1;shape=mxgraph.flowchart.decision;whiteSpace=wrap;fontSize=14;" vertex="1" parent="1">
          <mxGeometry x="181.25" y="590" width="107.5" height="110" as="geometry" />
        </mxCell>
        <mxCell id="aYYyIPE10w_DYUyuWhEu-17" value="" style="edgeStyle=orthogonalEdgeStyle;rounded=0;orthogonalLoop=1;jettySize=auto;html=1;" edge="1" parent="1" source="aYYyIPE10w_DYUyuWhEu-8" target="aYYyIPE10w_DYUyuWhEu-16">
          <mxGeometry relative="1" as="geometry" />
        </mxCell>
        <mxCell id="aYYyIPE10w_DYUyuWhEu-8" value="a = i, b = i + 1" style="rounded=1;whiteSpace=wrap;html=1;absoluteArcSize=1;arcSize=0;strokeWidth=2;fontSize=14;" vertex="1" parent="1">
          <mxGeometry x="155" y="760" width="160" height="80" as="geometry" />
        </mxCell>
        <mxCell id="aYYyIPE10w_DYUyuWhEu-10" value="i += step" style="rounded=1;whiteSpace=wrap;html=1;absoluteArcSize=1;arcSize=0;strokeWidth=2;fontSize=14;" vertex="1" parent="1">
          <mxGeometry x="377.5" y="605" width="160" height="80" as="geometry" />
        </mxCell>
        <mxCell id="aYYyIPE10w_DYUyuWhEu-12" style="edgeStyle=orthogonalEdgeStyle;rounded=0;orthogonalLoop=1;jettySize=auto;html=1;exitX=0.5;exitY=0;exitDx=0;exitDy=0;entryX=1;entryY=0.5;entryDx=0;entryDy=0;entryPerimeter=0;" edge="1" parent="1" source="aYYyIPE10w_DYUyuWhEu-10" target="aYYyIPE10w_DYUyuWhEu-4">
          <mxGeometry relative="1" as="geometry" />
        </mxCell>
        <mxCell id="aYYyIPE10w_DYUyuWhEu-24" value="" style="edgeStyle=orthogonalEdgeStyle;rounded=0;orthogonalLoop=1;jettySize=auto;html=1;" edge="1" parent="1" source="aYYyIPE10w_DYUyuWhEu-16" target="aYYyIPE10w_DYUyuWhEu-23">
          <mxGeometry relative="1" as="geometry" />
        </mxCell>
        <mxCell id="aYYyIPE10w_DYUyuWhEu-16" value="return a, b as interval" style="rounded=1;whiteSpace=wrap;html=1;absoluteArcSize=1;arcSize=0;strokeWidth=2;fontSize=14;" vertex="1" parent="1">
          <mxGeometry x="155" y="900" width="160" height="80" as="geometry" />
        </mxCell>
        <mxCell id="aYYyIPE10w_DYUyuWhEu-22" value="" style="edgeStyle=orthogonalEdgeStyle;rounded=0;orthogonalLoop=1;jettySize=auto;html=1;" edge="1" parent="1" source="aYYyIPE10w_DYUyuWhEu-18" target="aYYyIPE10w_DYUyuWhEu-4">
          <mxGeometry relative="1" as="geometry" />
        </mxCell>
        <mxCell id="aYYyIPE10w_DYUyuWhEu-18" value="step = (b + a) / divider" style="rounded=1;whiteSpace=wrap;html=1;absoluteArcSize=1;arcSize=0;strokeWidth=2;fontSize=14;" vertex="1" parent="1">
          <mxGeometry x="155" y="290" width="160" height="80" as="geometry" />
        </mxCell>
        <mxCell id="aYYyIPE10w_DYUyuWhEu-23" value="END" style="strokeWidth=2;html=1;shape=mxgraph.flowchart.terminator;whiteSpace=wrap;fontSize=14;" vertex="1" parent="1">
          <mxGeometry x="182.5" y="1020" width="105" height="50" as="geometry" />
        </mxCell>
        <mxCell id="aYYyIPE10w_DYUyuWhEu-25" style="edgeStyle=orthogonalEdgeStyle;rounded=0;orthogonalLoop=1;jettySize=auto;html=1;exitX=0;exitY=0.5;exitDx=0;exitDy=0;exitPerimeter=0;entryX=0;entryY=0.5;entryDx=0;entryDy=0;entryPerimeter=0;" edge="1" parent="1" source="aYYyIPE10w_DYUyuWhEu-4" target="aYYyIPE10w_DYUyuWhEu-23">
          <mxGeometry relative="1" as="geometry">
            <Array as="points">
              <mxPoint x="70" y="485" />
              <mxPoint x="70" y="1045" />
            </Array>
          </mxGeometry>
        </mxCell>
        <mxCell id="aYYyIPE10w_DYUyuWhEu-26" value="&lt;font style=&quot;font-size: 14px;&quot;&gt;F&lt;/font&gt;" style="edgeLabel;html=1;align=center;verticalAlign=middle;resizable=0;points=[];" vertex="1" connectable="0" parent="aYYyIPE10w_DYUyuWhEu-25">
          <mxGeometry x="-0.8253" y="-3" relative="1" as="geometry">
            <mxPoint as="offset" />
          </mxGeometry>
        </mxCell>
      </root>
    </mxGraphModel>
  </diagram>
</mxfile>
